<svg width="210" height="224" viewBox="0 0 210 224" fill="none" xmlns="http://www.w3.org/2000/svg">
    <g>
        <path fill-rule="evenodd" clip-rule="evenodd" d="M159.423 26.1153C166.189 28.679 175.113 21.6311 180.761 26.1542C186.625 30.8505 182.67 41.0181 186.267 47.6135C189.731 53.9631 197.156 56.9362 200.92 63.1122C207.173 73.3716 218.075 83.7235 215.417 95.4407C212.977 106.198 200.191 113.622 189.215 114.714C178.149 115.815 170.542 101.159 159.423 101.011C148.554 100.866 140.707 116.235 130.086 113.924C120.264 111.788 114.224 100.38 111.747 90.638C109.402 81.418 118.5 72.5315 117.165 63.1122C115.486 51.2636 101.411 42.5062 103.251 30.6816C105.027 19.2695 114.625 6.3938 126.136 5.45801C139.377 4.38161 147 21.4084 159.423 26.1153Z" fill="#006284" fill-opacity="0.05" stroke="#48A1C1" stroke-opacity="0.5"/>
        <path fill-rule="evenodd" clip-rule="evenodd" d="M159.404 9.41077C169.553 13.2563 182.938 2.6844 191.41 9.46907C200.207 16.5135 194.274 31.7649 199.67 41.6581C204.866 51.1824 216.003 55.642 221.649 64.906C231.029 80.2952 247.382 95.823 243.396 113.399C239.736 129.534 220.556 140.671 204.092 142.309C187.494 143.96 176.083 121.977 159.404 121.754C143.101 121.536 131.331 144.591 115.399 141.125C100.666 137.919 91.6054 120.807 87.8895 106.195C84.3726 92.3648 98.0188 79.035 96.0169 64.906C93.4986 47.1331 72.3867 33.9971 75.1467 16.2602C77.8103 -0.857937 92.2067 -20.1715 109.474 -21.5752C129.336 -23.1898 140.769 2.35045 159.404 9.41077Z" fill="#006284" fill-opacity="0.05" stroke="#48A1C1" stroke-opacity="0.5"/>
        <path fill-rule="evenodd" clip-rule="evenodd" d="M159.383 -7.26309C173.999 -1.71307 193.273 -16.9708 205.472 -7.17895C218.139 2.98782 209.596 24.9992 217.367 39.2774C224.848 53.0233 240.886 59.4595 249.016 72.8297C262.523 95.0399 286.072 117.45 280.331 142.816C275.061 166.104 247.443 182.176 223.734 184.54C199.832 186.923 183.401 155.196 159.383 154.874C135.907 154.56 118.958 187.833 96.0161 182.831C74.8008 178.205 61.7533 153.508 56.4025 132.419C51.3381 112.459 70.9886 93.2212 68.1058 72.8297C64.4796 47.1792 34.0784 28.2208 38.0528 2.62221C41.8885 -22.0833 62.6192 -49.9573 87.4839 -51.9832C116.085 -54.3134 132.549 -17.4528 159.383 -7.26309Z" fill="#006284" fill-opacity="0.05" stroke="#48A1C1" stroke-opacity="0.5"/>
        <path fill-rule="evenodd" clip-rule="evenodd" d="M150.913 -15.2091C168.438 -8.54905 191.549 -26.8584 206.177 -15.1081C221.365 -2.90798 211.122 23.5056 220.439 40.6396C229.41 57.1346 248.64 64.8581 258.39 80.9022C274.585 107.554 302.822 134.447 295.939 164.886C289.619 192.831 256.503 212.118 228.075 214.955C199.414 217.814 179.712 179.742 150.913 179.356C122.763 178.979 102.44 218.907 74.9309 212.904C49.4922 207.353 33.8474 177.717 27.4312 152.41C21.3587 128.458 44.9212 105.372 41.4645 80.9022C37.1163 50.1217 0.663067 27.3716 5.42862 -3.34672C10.0279 -32.9933 34.8855 -66.4421 64.7001 -68.8731C98.9948 -71.6694 118.737 -27.4367 150.913 -15.2091Z" fill="#006284" fill-opacity="0.05" stroke="#48A1C1" stroke-opacity="0.5"/>
    </g>
</svg>
